<?xml version="1.0" encoding="utf-8"?>
<!-- Generator: Adobe Illustrator 27.5.0, SVG Export Plug-In . SVG Version: 6.00 Build 0)  -->
<svg version="1.1" xmlns="http://www.w3.org/2000/svg" xmlns:xlink="http://www.w3.org/1999/xlink" x="0px" y="0px"
	 viewBox="0 0 500 500" style="enable-background:new 0 0 500 500;" xml:space="preserve">
<g id="Background_Simple">
	<g>
		<path style="opacity:0.7;fill:#FFFFFF;" d="M67.931,167.086c0,0-27.877,71.988,11.297,144.503
			c39.174,72.516,119.879,110.802,184.469,143.548c64.59,32.746,131.661,16.799,163.534-36.838
			c31.873-53.637-11.845-91.928-11.897-168.418c-0.051-76.49,11.447-96.742-29.963-161.364
			c-41.41-64.623-143.059-78.925-219.9-30.996C88.631,105.45,67.931,167.086,67.931,167.086z"/>
	</g>
	<g>
		<path style="fill:#92E3A9;" d="M406.262,99.269C359.78,79.834,308.785,74,258.454,71.749
			c-52.572-2.351-108.963-0.52-156.311,25.129c-17.934,9.715-34.853,22.175-46.435,39.184
			c-11.765,17.278-18.535,37.854-20.33,58.623c-2.896,33.501,6.117,67.092,19.746,97.832c13.628,30.741,31.805,59.203,48.487,88.399
			c10.152,17.766,8.644,42.185,24.529,62.423h117.209c82.353-51.67,217.56-135.657,223.846-255.857
			C471.942,134.948,425.618,107.362,406.262,99.269z"/>
		<path style="opacity:0.7;fill:#FFFFFF;" d="M406.262,99.269C359.78,79.834,308.785,74,258.454,71.749
			c-52.572-2.351-108.963-0.52-156.311,25.129c-17.934,9.715-34.853,22.175-46.435,39.184
			c-11.765,17.278-18.535,37.854-20.33,58.623c-2.896,33.501,6.117,67.092,19.746,97.832c13.628,30.741,31.805,59.203,48.487,88.399
			c10.152,17.766,8.644,42.185,24.529,62.423h117.209c82.353-51.67,217.56-135.657,223.846-255.857
			C471.942,134.948,425.618,107.362,406.262,99.269z"/>
	</g>
</g>
<g id="Window">
	<g>
		
			<line style="fill:none;stroke:#263238;stroke-linecap:round;stroke-linejoin:round;stroke-miterlimit:10;" x1="60.869" y1="443.38" x2="449.739" y2="443.38"/>
		
			<line style="fill:none;stroke:#263238;stroke-linecap:round;stroke-linejoin:round;stroke-miterlimit:10;" x1="245.259" y1="399.033" x2="245.259" y2="442.559"/>
		
			<line style="fill:none;stroke:#263238;stroke-linecap:round;stroke-linejoin:round;stroke-miterlimit:10;" x1="245.259" y1="384.791" x2="245.259" y2="394.118"/>
		<polyline style="fill:none;stroke:#263238;stroke-linecap:round;stroke-linejoin:round;stroke-miterlimit:10;" points="
			428.459,442.814 428.459,361.714 245.259,361.714 245.259,379.517 		"/>
		<polyline style="fill:none;stroke:#263238;stroke-linecap:round;stroke-linejoin:round;stroke-miterlimit:10;" points="
			401.769,370.581 417.665,370.581 417.665,435.38 		"/>
		<polyline style="fill:none;stroke:#263238;stroke-linecap:round;stroke-linejoin:round;stroke-miterlimit:10;" points="
			256.053,442.559 256.053,370.581 392.538,370.581 		"/>
		
			<line style="fill:none;stroke:#263238;stroke-linecap:round;stroke-linejoin:round;stroke-miterlimit:10;" x1="263.669" y1="353.317" x2="268.72" y2="353.317"/>
		<polyline style="fill:none;stroke:#263238;stroke-linecap:round;stroke-linejoin:round;stroke-miterlimit:10;" points="
			275.967,353.317 433.014,353.317 433.014,361.655 240.705,361.655 240.705,353.317 260.449,353.317 		"/>
		<polyline style="fill:none;stroke:#263238;stroke-linecap:round;stroke-linejoin:round;stroke-miterlimit:10;" points="
			68.769,180.794 68.769,165.125 225.586,165.125 225.586,321.942 82.385,321.942 		"/>
		
			<line style="fill:none;stroke:#263238;stroke-linecap:round;stroke-linejoin:round;stroke-miterlimit:10;" x1="68.769" y1="321.942" x2="68.769" y2="188.745"/>
		<g>
			<polyline style="fill:none;stroke:#263238;stroke-linecap:round;stroke-linejoin:round;stroke-miterlimit:10;" points="
				76.266,222.365 76.266,172.724 144.885,172.724 144.885,241.343 76.266,241.343 76.266,226.462 			"/>
			<polyline style="fill:none;stroke:#263238;stroke-linecap:round;stroke-linejoin:round;stroke-miterlimit:10;" points="
				218.09,216.516 218.09,241.343 149.471,241.343 149.471,172.724 218.09,172.724 218.09,209.26 			"/>
			<polyline style="fill:none;stroke:#263238;stroke-linecap:round;stroke-linejoin:round;stroke-miterlimit:10;" points="
				144.885,245.724 144.885,314.343 76.266,314.343 76.266,245.724 139.818,245.724 			"/>
			<polyline style="fill:none;stroke:#263238;stroke-linecap:round;stroke-linejoin:round;stroke-miterlimit:10;" points="
				168.087,314.343 149.471,314.343 149.471,245.724 218.09,245.724 218.09,314.343 177.885,314.343 			"/>
		</g>
	</g>
</g>
<g id="Friend_3">
	<g>
		<g>
			<g>
				<defs>
					<path id="XMLID_289_" d="M402.873,202.95v148.16c0,3.28-2.66,5.94-5.94,5.94h-112.4c-3.28,0-5.94-2.66-5.94-5.94V202.95
						c0-3.28,2.66-5.94,5.94-5.94h112.4C400.214,197.01,402.873,199.67,402.873,202.95z"/>
				</defs>
				<use xlink:href="#XMLID_289_"  style="overflow:visible;fill:#FFFFFF;"/>
				<clipPath id="XMLID_00000060015327811283630220000008187720851933580436_">
					<use xlink:href="#XMLID_289_"  style="overflow:visible;"/>
				</clipPath>
				<path style="opacity:0.3;clip-path:url(#XMLID_00000060015327811283630220000008187720851933580436_);fill-opacity:0.7;" d="
					M293.043,288.79v20.71c0,0-7.56-1.23-14.45-3.06v-44.08c3.38-10.22,6.39-18.3,6.39-18.3s-2.49-4.32-6.39-10.39v-15.64l4.81,6.94
					l4.45,1.49l3.85,16.75l-6.19,40.98L293.043,288.79z"/>
				
					<use xlink:href="#XMLID_289_"  style="overflow:visible;fill:none;stroke:#263238;stroke-linecap:round;stroke-linejoin:round;stroke-miterlimit:10;"/>
			</g>
			<path style="fill:#92E3A9;stroke:#263238;stroke-linecap:round;stroke-linejoin:round;stroke-miterlimit:10;" d="
				M402.877,213.685H278.596v-10.734c0-3.28,2.659-5.939,5.939-5.939h112.403c3.28,0,5.939,2.659,5.939,5.939V213.685z"/>
			
				<circle style="fill:#92E3A9;stroke:#263238;stroke-linecap:round;stroke-linejoin:round;stroke-miterlimit:10;" cx="298.733" cy="333.429" r="10.879"/>
			
				<line style="fill:#FFFFFF;stroke:#263238;stroke-width:2;stroke-linecap:round;stroke-linejoin:round;stroke-miterlimit:10;" x1="319.338" y1="325.291" x2="348.556" y2="325.291"/>
			
				<line style="fill:#FFFFFF;stroke:#263238;stroke-width:2;stroke-linecap:round;stroke-linejoin:round;stroke-miterlimit:10;" x1="319.338" y1="335.287" x2="390.613" y2="335.287"/>
			
				<line style="fill:#FFFFFF;stroke:#263238;stroke-width:2;stroke-linecap:round;stroke-linejoin:round;stroke-miterlimit:10;" x1="319.338" y1="342.872" x2="374.991" y2="342.872"/>
			<path style="fill:#263238;" d="M303.185,340.22c-0.659,0-2.582-1.451-1.923-2.637c0.659-1.187,1.923-3.165,1.923-3.165
				c0.791-1.055,0.923-3.56,0.923-3.56c0.264-1.846-0.791-5.011-5.375-5.011c-4.584,0-5.639,3.165-5.375,5.011
				c0,0,0.132,2.506,0.923,3.56c0,0,1.264,1.978,1.923,3.165c0.659,1.187-1.264,2.637-1.923,2.637c-0.659,0-3.123,1.01-3.123,1.01
				s4.379,3.078,7.576,3.078c3.196,0,7.575-3.078,7.575-3.078S303.844,340.22,303.185,340.22z"/>
			
				<line style="fill:none;stroke:#FFFFFF;stroke-width:3;stroke-linecap:round;stroke-linejoin:round;stroke-miterlimit:10;" x1="311.826" y1="205.348" x2="369.644" y2="205.348"/>
		</g>
		<g>
			<g>
				<defs>
					<rect id="XMLID_288_" x="287.659" y="222.365" width="107.802" height="91.974"/>
				</defs>
				<use xlink:href="#XMLID_288_"  style="overflow:visible;fill:#FFFFFF;"/>
				<clipPath id="XMLID_00000073691160008383491210000003095437466792333730_">
					<use xlink:href="#XMLID_288_"  style="overflow:visible;"/>
				</clipPath>
				
					<rect x="287.659" y="222.365" style="opacity:0.4;clip-path:url(#XMLID_00000073691160008383491210000003095437466792333730_);fill:#92E3A9;" width="107.802" height="91.974"/>
				
					<use xlink:href="#XMLID_288_"  style="overflow:visible;fill:none;stroke:#263238;stroke-linecap:round;stroke-linejoin:round;stroke-miterlimit:10;"/>
			</g>
			<path style="fill:#FFFFFF;stroke:#263238;stroke-linecap:round;stroke-linejoin:round;stroke-miterlimit:10;" d="
				M285.088,231.894c0,0-1.31,12.628-5.995,24.543c-4.686,11.915-10.387,27.344-10.373,36.864
				c0.011,7.133,36.544,11.666,36.544,11.666l2.717-22.712l-18.964-0.666c0,0,2.005-7.066,2.797-21.386
				c0.446-8.068,6.507-24.903,6.507-24.903"/>
			<path style="fill:#263238;" d="M324.648,276.732h18.497c0,0,2.865-5.413,17.107-4.326c14.242,1.088,17.802,4.326,17.802,4.326
				s12.659,2.809,17.407,5.522v32.085h-75.627l-3.098-4.056l-24.923-3.865c0,0,0-24.076,3.956-29.687c0,0,4.352-0.073,4.747,2.696
				C300.516,279.429,318.319,276.732,324.648,276.732z"/>
			<path style="fill:#FFFFFF;stroke:#263238;stroke-linecap:round;stroke-linejoin:round;stroke-miterlimit:10;" d="
				M343.908,263.162c0.33,0.6,0.8,1.2,1.39,1.79c4.05,4,4.41,7.28,3.75,9.57c-0.67,2.32-2.38,3.62-2.38,3.62s-0.23,6.36,7.66,7.13
				c9.49,0.92,14.82-8.98,14.82-8.98c-11.82-16.23-2.93-23.09-2.93-23.09C354.748,246.832,339.558,255.462,343.908,263.162z"/>
			<path style="opacity:0.2;fill-opacity:0.7;" d="M345.298,264.952c4.05,4,4.41,7.28,3.75,9.57
				c11.19-3.76,8.901-12.328,8.901-12.328s-3.214,3.264-6.775,4.633C349.58,267.44,345.298,264.952,345.298,264.952z"/>
			<path style="fill:#FFFFFF;stroke:#263238;stroke-linecap:round;stroke-linejoin:round;stroke-miterlimit:10;" d="
				M368.012,245.837c4.299-18.426-4.607-26.411-10.441-28.825c-9.347-3.868-21.497,2.211-24.261,12.447
				c-2.764,10.236-0.273,12.567-0.402,16.755c-0.091,2.937-1.901,4.384,0.095,11.754c1.317,4.862,3.507,12.666,11.823,11.268
				c1.658-0.279,4.347-0.935,7.348-2.391"/>
			<path style="fill:none;stroke:#263238;stroke-linecap:round;stroke-linejoin:round;stroke-miterlimit:10;" d="M343.75,239.848
				c0,0,3.456-1.285,5.303,2.77"/>
			<path style="fill:none;stroke:#263238;stroke-linecap:round;stroke-linejoin:round;stroke-miterlimit:10;" d="M332.001,237.698
				c0,0,3.611-0.776,5.146,1.839"/>
			<path style="fill:none;stroke:#263238;stroke-linecap:round;stroke-linejoin:round;stroke-miterlimit:10;" d="M338.069,244.762
				c0,0,0.307,3.225-0.921,3.839c-1.229,0.614-3.15-0.685-2.573,1.884c0.577,2.569,3.529,2.722,3.529,2.722"/>
			<path style="fill:#263238;stroke:#263238;stroke-linecap:round;stroke-linejoin:round;stroke-miterlimit:10;" d="
				M344.438,245.611c0,0.856,0.384,1.551,0.857,1.551c0.473,0,0.857-0.694,0.857-1.551s-0.384-1.551-0.857-1.551
				C344.821,244.06,344.438,244.754,344.438,245.611z"/>
			<path style="fill:#263238;stroke:#263238;stroke-linecap:round;stroke-linejoin:round;stroke-miterlimit:10;" d="
				M334.572,244.762c0,0.856,0.384,1.551,0.857,1.551c0.473,0,0.857-0.694,0.857-1.551s-0.384-1.551-0.857-1.551
				C334.956,243.211,334.572,243.905,334.572,244.762z"/>
			<path style="fill:none;stroke:#263238;stroke-linecap:round;stroke-linejoin:round;stroke-miterlimit:10;" d="M344.438,255.733
				c0,0-3.767,2.09-7.29,1.177"/>
			<path style="fill:none;stroke:#263238;stroke-linecap:round;stroke-linejoin:round;stroke-miterlimit:10;" d="M343.75,256.436
				c0,0-0.405,2.725-2.958,2.988c-2.553,0.264-2.69-2.285-2.69-2.285"/>
			<path style="fill:#263238;" d="M329.89,235.841c0,0-4.574-4.276-0.702-13.337c3.871-9.062,36.299-10.652,43.229-0.064
				c6.93,10.589,1.409,30.889-9.356,37.763c0,0,2.108-8.77-4.919-11.218c0,0-6.265-6.97-3.752-15.327c0,0-3.457,0.592-4.386,3.249
				c0,0-4.771-1.046-5.086-5.25c0,0-1.114,3.075-0.873,5.653c0,0-6.983-1.688-7.5-4.823c0,0-1.115,2.107,0.604,3.953
				c0,0-4.06,0.132-6.602-3.284L329.89,235.841z"/>
			<path style="fill:#FFFFFF;stroke:#263238;stroke-linecap:round;stroke-linejoin:round;stroke-miterlimit:10;" d="M357.57,249.061
				c0,0,3.378-6.296,6.91-4.76c3.532,1.536,1.075,9.06-1.996,11.516c-3.071,2.457-4.914,0-4.914,0"/>
			<g>
				
					<path id="XMLID_282_" style="fill:#FFFFFF;stroke:#263238;stroke-linecap:round;stroke-linejoin:round;stroke-miterlimit:10;" d="
					M295.742,239.444c2.157-0.138,3.938-2.38,4.764-3.499c0.723-0.977,1.376-2.128,1.89-3.457c0.413-1.074,0.968-2.166,1.575-3.198
					c0.399-0.689,0.828-1.357,1.239-1.973c1.44-2.127,2.77-3.654,2.77-3.654s-0.672-2.412-2.588-1.222
					c-0.492,0.303-0.953,0.753-1.393,1.253c-0.716,0.829-1.363,1.797-1.922,2.526c-0.438,0.571-0.826,0.988-1.151,1.068
					c-0.204,0.047-0.405,0.076-0.597,0.07c0,0-0.016-0.002-0.056,0.017c-0.075,0.003-0.15,0-0.224-0.003
					c-0.441-0.024-0.869-0.158-1.211-0.39c-0.163-0.109-0.303-0.239-0.418-0.395c-0.029-0.021-0.072-0.068-0.097-0.125
					c-0.071-0.121-0.141-0.249-0.199-0.393c-0.278-0.622-0.464-1.435-0.584-2.347l0.001-0.006c-0.148-1.124-0.187-2.395-0.171-3.635
					l0.001-0.006c0.012-0.456,0.025-0.913,0.051-1.349c0.06-1.295,0.181-2.475,0.305-3.322c0.116-0.783,0.229-1.631,0.31-2.477
					c0.088-0.816,0.143-1.624,0.159-2.377c0.04-2.195-0.309-3.866-1.591-3.492c-1.159,0.335-1.236,1.147-1.446,3.059
					c-0.075,0.669-0.166,1.466-0.319,2.423c-0.219,1.323-0.564,2.94-1.18,4.94c-0.001,0.006-0.001,0.006-0.001,0.006
					c-0.057,0.207-0.126,0.419-0.195,0.636l-0.789,0.018c-0.056,0.154-0.152-0.155-0.258-0.792c0.001-0.006,0.001-0.006,0.001-0.006
					c-0.17-1.031-0.358-2.926-0.432-5.105c-0.029-0.776-0.042-1.598-0.034-2.424c0.004-0.743,0.025-1.495,0.066-2.233
					c0.198-3.674-2.113-2.586-2.721-1.494c-0.36,0.634-0.414,2.143-0.429,3.818c-0.007,0.813-0.008,1.663-0.025,2.47
					c-0.011,0.403-0.026,0.793-0.05,1.165c-0.09,1.541-0.165,3.137-0.218,4.242c-0.008,0.154-0.014,0.296-0.019,0.426l-0.975,0.447
					c-0.065-0.168-0.125-0.336-0.181-0.497c0.001-0.006,0.001-0.006,0.001-0.012c-0.643-1.813-0.995-3.289-1.213-4.492
					c-0.189-1.051-0.275-1.894-0.367-2.547c-0.166-1.239-0.34-1.836-1.198-1.999c-0.958-0.181-1.411,1.137-1.532,2.752
					c-0.095,1.273,0.023,2.731,0.275,3.796l-0.001,0.006c0.057,0.239,0.122,0.455,0.189,0.647c0.288,0.808,0.447,1.927,0.568,3.41
					c0.016,0.222,0.03,0.461,0.049,0.701l-0.552,0.718c-0.163-0.287-0.311-0.573-0.444-0.844c0.001-0.006-0.005-0.007-0.005-0.007
					c-0.531-1.051-0.911-1.989-1.21-2.792l0.001-0.006c-0.368-0.99-0.621-1.775-0.904-2.309c-0.282-0.545-0.596-0.827-1.091-0.804
					c-0.777,0.049-0.961,1.132-0.835,2.432c0.075,0.752,0.255,1.57,0.483,2.294c0.202,0.631,0.435,1.188,0.672,1.573
					c0.349,0.571,0.742,1.748,1.105,3.035c0.115,0.424,0.233,0.861,0.342,1.29c0.401,1.553,0.717,3.017,0.822,3.523
					c0.028,0.122,0.041,0.189,0.041,0.189c0.052,1.207,0.127,2.227,0.223,3.118c0.297,2.729,0.813,4.218,1.757,6.02
					c0.496,0.956,1.878,1.529,3.538,1.838"/>
				<path style="fill:none;stroke:#263238;stroke-linecap:round;stroke-linejoin:round;stroke-miterlimit:10;" d="M298.321,226.463
					c0,0-4.716-0.183-6.122,4.35"/>
			</g>
		</g>
		<path style="fill:none;stroke:#263238;stroke-linecap:round;stroke-linejoin:round;stroke-miterlimit:10;" d="M289.017,281.588
			c0,0-0.456,2.725-3.819,4.436"/>
	</g>
</g>
<g id="Friend_2">
	<g>
		<path style="fill:#92E3A9;stroke:#263238;stroke-linecap:round;stroke-linejoin:round;stroke-miterlimit:10;" d="M382.569,152.213
			H260.023l-13.714,18v-63.228c0-5.96,4.831-10.791,10.791-10.791h125.469c5.96,0,10.791,4.831,10.791,10.791v34.437
			C393.36,147.382,388.529,152.213,382.569,152.213z"/>
		<path style="fill:#999999;stroke:#263238;stroke-linecap:round;stroke-linejoin:round;stroke-miterlimit:10;" d="M379.24,123.38
			c0,6.43-3.27,12.11-8.23,15.44c-2.96,2-6.53,3.16-10.36,3.16c-0.68,0-1.36-0.04-2.02-0.11c-9.32-1.01-16.58-8.9-16.58-18.49
			c0-10.26,8.33-18.59,18.6-18.59C370.92,104.79,379.24,113.12,379.24,123.38z"/>
		<g>
			
				<line style="fill:none;stroke:#FFFFFF;stroke-width:2;stroke-linecap:round;stroke-linejoin:round;stroke-miterlimit:10;" x1="266.099" y1="109.143" x2="296.56" y2="109.143"/>
			
				<line style="fill:none;stroke:#FFFFFF;stroke-width:2;stroke-linecap:round;stroke-linejoin:round;stroke-miterlimit:10;" x1="266.099" y1="116.73" x2="327.632" y2="116.73"/>
			
				<line style="fill:none;stroke:#FFFFFF;stroke-width:2;stroke-linecap:round;stroke-linejoin:round;stroke-miterlimit:10;" x1="266.099" y1="124.318" x2="319.834" y2="124.318"/>
			
				<line style="fill:none;stroke:#FFFFFF;stroke-width:2;stroke-linecap:round;stroke-linejoin:round;stroke-miterlimit:10;" x1="266.099" y1="131.905" x2="327.632" y2="131.905"/>
			
				<line style="fill:none;stroke:#FFFFFF;stroke-width:2;stroke-linecap:round;stroke-linejoin:round;stroke-miterlimit:10;" x1="266.099" y1="139.492" x2="303.681" y2="139.492"/>
		</g>
		<g>
			<path style="fill:#FFFFFF;stroke:#263238;stroke-linecap:round;stroke-linejoin:round;stroke-miterlimit:10;" d="M371.01,138.82
				c-2.96,2-6.53,3.16-10.36,3.16c-0.68,0-1.36-0.04-2.02-0.11l-0.68-2.14l-1.08-2.37l1.34-1.08l10.25-8.19l1.28,4.12
				C369.57,132.7,370.42,136.4,371.01,138.82z"/>
			<path style="fill:#263238;" d="M364.495,134.366c0,0-1.854,4.97-6.542,5.368l-1.087-2.378l1.349-1.077
				C361.117,135.23,364.495,134.366,364.495,134.366z"/>
			<path style="fill:#FFFFFF;stroke:#263238;stroke-linecap:round;stroke-linejoin:round;stroke-miterlimit:10;" d="
				M367.967,111.405c-3.698-5.14-15.596-0.471-17.396,5.508c-1.8,5.979-0.341,19.602,3.887,21.048
				C365.245,141.649,376.87,123.779,367.967,111.405z"/>
			<path style="fill:#263238;" d="M361.543,118.038c0,0-2.354-2.135-8.52-1.626l1.842,2.057c0,0-5.108,0.905-6.303-1.884
				c-1.195-2.789,6.618-15.568,20.006-7.603c11.668,6.942,1.172,23.234,1.172,23.234l-1.13-2.107l-1.746-1.837
				c0,0,3.428-3.313,0.976-5.981c-2.452-2.668-4.605,1.308-4.605,1.308S360.636,120.565,361.543,118.038z"/>
			<path style="fill:none;stroke:#263238;stroke-linecap:round;stroke-linejoin:round;stroke-miterlimit:10;" d="M360.197,121.647
				c0,0-1.838-0.407-3.33,0"/>
			<path style="fill:none;stroke:#263238;stroke-linecap:round;stroke-linejoin:round;stroke-miterlimit:10;" d="M352.366,121.556
				c0,0-1.368-0.521-1.838-0.407"/>
			<path style="fill:#263238;" d="M357.875,124.768c0,0.668,0.294,1.209,0.657,1.209c0.363,0,0.657-0.541,0.657-1.209
				s-0.294-1.209-0.657-1.209C358.169,123.559,357.875,124.1,357.875,124.768z"/>
			<path style="fill:#263238;" d="M351.709,124.768c0,0.668,0.294,1.209,0.657,1.209c0.363,0,0.657-0.541,0.657-1.209
				s-0.294-1.209-0.657-1.209C352.003,123.559,351.709,124.1,351.709,124.768z"/>
			<path style="fill:#FFFFFF;stroke:#263238;stroke-linecap:round;stroke-linejoin:round;stroke-miterlimit:10;" d="
				M353.542,124.768c-0.203,1.413-1.176,4.364-1.176,4.364l1.176,1.018"/>
			<path style="fill:#FFFFFF;stroke:#263238;stroke-linecap:round;stroke-linejoin:round;stroke-miterlimit:10;" d="
				M353.542,131.371c0,0,2.846,0.407,5.646,0c0,0-0.102,2.544-2.823,2.951c-2.721,0.407-1.806-2.239-1.806-2.239"/>
		</g>
	</g>
</g>
<g id="Friend_1">
	<g>
		<g>
			<defs>
				<path id="XMLID_290_" d="M210.12,81.699v148.092c0,3.042-2.466,5.509-5.509,5.509h-85.962c-3.042,0-5.509-2.466-5.509-5.509
					V81.699c0-3.042,2.466-5.509,5.509-5.509h18.355c2.119,0,4.05,1.215,4.966,3.125l0,0c0.917,1.91,2.848,3.125,4.966,3.125h28.377
					c2.119,0,4.049-1.215,4.966-3.125l0,0c0.917-1.91,2.848-3.125,4.966-3.125h19.365C207.654,76.19,210.12,78.656,210.12,81.699z"
					/>
			</defs>
			<use xlink:href="#XMLID_290_"  style="overflow:visible;fill:#92E3A9;"/>
			<clipPath id="XMLID_00000031178227384878728310000011100287345764358327_">
				<use xlink:href="#XMLID_290_"  style="overflow:visible;"/>
			</clipPath>
			<path style="opacity:0.5;clip-path:url(#XMLID_00000031178227384878728310000011100287345764358327_);fill:#FFFFFF;" d="
				M210.12,81.699v148.092c0,3.042-2.466,5.509-5.509,5.509h-85.962c-3.042,0-5.509-2.466-5.509-5.509V81.699
				c0-3.042,2.466-5.509,5.509-5.509h18.355c2.119,0,4.05,1.215,4.966,3.125l0,0c0.917,1.91,2.848,3.125,4.966,3.125h28.377
				c2.119,0,4.049-1.215,4.966-3.125l0,0c0.917-1.91,2.848-3.125,4.966-3.125h19.365C207.654,76.19,210.12,78.656,210.12,81.699z"/>
			<path style="opacity:0.3;clip-path:url(#XMLID_00000031178227384878728310000011100287345764358327_);fill-opacity:0.7;" d="
				M210.231,162.258l-0.772-0.744l-6.999,10.508l0.057,28.279l2.817,0.132l2.524-8.829c0,0,1.023-1.182,2.374-3.393V162.258z"/>
			<path style="clip-path:url(#XMLID_00000031178227384878728310000011100287345764358327_);fill:#263238;" d="M210.12,81.7v9.03
				h-96.98V81.7c0-3.04,2.47-5.51,5.51-5.51H137c2.12,0,4.05,1.21,4.97,3.12v0.01c0.92,1.91,2.85,3.12,4.97,3.12h28.37
				c2.12,0,4.05-1.21,4.97-3.12v-0.01c0.92-1.91,2.85-3.12,4.97-3.12h19.36C207.65,76.19,210.12,78.66,210.12,81.7z"/>
			
				<use xlink:href="#XMLID_290_"  style="overflow:visible;fill:none;stroke:#263238;stroke-linecap:round;stroke-linejoin:round;stroke-miterlimit:10;"/>
		</g>
		<g>
			<polyline style="fill:#BFBFBF;stroke:#263238;stroke-miterlimit:10;" points="117.498,182.181 117.498,114.451 205.334,114.451 
				205.334,216.516 			"/>
			<path style="fill:#263238;" d="M168.68,154.626c-3.927,10.919-7.424,18.706-4.989,25.254c2.435,6.548,3.167,10.088-0.806,14.159
				c-3.973,4.071,0,10.796,0,10.796s-7.732,0.067-8.861-7.134c-1.129-7.202-3.018-15.35-8.799-16.939
				c-5.781-1.589-19.345-1.712-25.856,0.031c0,0-1.871-4.098,2.828-8.391c3.033-2.77,2.668-10.995,2.613-17.776
				c-0.056-6.78,3.374-27.034,19.623-22.482C160.682,136.696,168.68,154.626,168.68,154.626z"/>
			<path style="fill:#92E3A9;stroke:#263238;stroke-linecap:round;stroke-linejoin:round;stroke-miterlimit:10;" d="
				M117.498,182.181c0,0,3.894-5.487,22.831-2.301c18.937,3.186,28.542,7.256,29.669,8.672c1.126,1.416,12.1,13.419,12.1,13.419
				s-0.885,11.359-3.54,14.545h-61.06V182.181z"/>
			<path style="fill:none;stroke:#263238;stroke-linecap:round;stroke-linejoin:round;stroke-miterlimit:10;" d="M167.408,203.597
				c0,0,4.956,8.318,5.133,12.92"/>
			<path style="fill:#FFFFFF;stroke:#263238;stroke-linecap:round;stroke-linejoin:round;stroke-miterlimit:10;" d="M135.135,162.89
				c0,0,2.525,15.279-2.75,15.996c0,0,3.105,8.235,15.992,6.481c0,0-2.258-9.203,3.666-12.212
				C157.966,170.146,135.135,162.89,135.135,162.89z"/>
			<g>
				<path style="fill:#FFFFFF;stroke:#263238;stroke-linecap:round;stroke-linejoin:round;stroke-miterlimit:10;" d="
					M135.627,167.342c-8.376-11.373-0.228-30.295,8.682-33.102c16.601-5.232,21.538,6.531,21.798,12.852
					c0.22,5.357-3.613,11.781-3.376,15.009c0.595,8.076-7.906,16.128-12.568,16.068c-2.916-0.038-5.743-1.614-8.711-4.182"/>
				<path style="fill:none;stroke:#263238;stroke-linecap:round;stroke-linejoin:round;stroke-miterlimit:10;" d="M142.032,152.198
					c0,0,1.717-3.363,6.388-3.176"/>
				<path style="fill:none;stroke:#263238;stroke-linecap:round;stroke-linejoin:round;stroke-miterlimit:10;" d="M158.882,150.606
					c0,0,3.736-0.408,4.809,3.087"/>
				<path style="fill:#263238;" d="M148.411,155.691c-0.13,1.024-0.693,1.795-1.256,1.723c-0.563-0.072-0.913-0.96-0.783-1.983
					c0.13-1.024,0.693-1.795,1.256-1.723C148.191,153.779,148.541,154.667,148.411,155.691z"/>
				<path style="fill:#263238;" d="M160.275,156.936c-0.131,1.024-0.693,1.795-1.256,1.724c-0.563-0.072-0.913-0.96-0.783-1.983
					c0.131-1.023,0.693-1.795,1.256-1.723C160.055,155.025,160.406,155.913,160.275,156.936z"/>
				<path style="fill:none;stroke:#263238;stroke-linecap:round;stroke-linejoin:round;stroke-miterlimit:10;" d="M154.024,159.298
					c0,0,0.623,1.806,1.744,2.491c1.121,0.685-1.744,3.114-1.744,3.114"/>
				<path style="fill:none;stroke:#263238;stroke-linecap:round;stroke-linejoin:round;stroke-miterlimit:10;" d="M155.042,167.86
					c0,0-4.851-0.509-7.666-3.114"/>
				<path style="fill:none;stroke:#263238;stroke-linecap:round;stroke-linejoin:round;stroke-miterlimit:10;" d="M147.787,165.098
					c0,0,0.62,3.699,3.176,4.61c2.556,0.912,3.335-1.958,3.335-1.958"/>
				<path style="fill:#263238;" d="M135.016,153.693c0,0,2.442,0.747,3.189,3.114c0,0,17.823-2.058,23.081-13.385
					c0,0,3.706,2.474,3.391,14.22c0,0,5.788-0.71,5.29-9.927c-0.498-9.217-13.701-23.043-25.534-15.57c0,0-7.772-3.238-13.913,7.847
					c-6.141,11.086-2.86,24.413,4.592,26.344C135.113,166.335,132.574,159.298,135.016,153.693z"/>
				<path style="fill:#FFFFFF;stroke:#263238;stroke-linecap:round;stroke-linejoin:round;stroke-miterlimit:10;" d="
					M136.835,155.587c0,0-3.239-4.137-4.858-2.767c-1.619,1.37-2.242,7.282,0,9.279c2.242,1.998,3.861,3.799,4.235,1.931"/>
				<path style="fill:#263238;" d="M146.17,149.793c0,0-13.406,10.639-14.731,14.386c-3.498,9.892-0.919,13.173-0.919,13.173
					s-7.663-0.325-5.235-14.904c2.428-14.579,13.982-20.442,13.982-20.442L146.17,149.793z"/>
			</g>
			<g>
				<path style="fill:#92E3A9;stroke:#263238;stroke-linecap:round;stroke-linejoin:round;stroke-miterlimit:10;" d="
					M179.102,198.688l6.358,6.148c0,0,0.994-4,2.975-3.77c0,0,0.143-2.366,0-4.254c0,0,2.572-1.652,8.412,0
					c5.84,1.652,7.916,6.65,8.412,8.044c0.496,1.395-1.628,3.519-1.628,3.519s2.149,5.154,1.465,8.141h-30.962"/>
				<path style="fill:#FFFFFF;stroke:#263238;stroke-linecap:round;stroke-linejoin:round;stroke-miterlimit:10;" d="
					M192.898,199.934c0.932-4.289,2.8-10.219,1.598-14.673l10.763-0.552c-3.672,8.956-4.252,20.158-4.252,20.158
					s-4.361-0.741-6.39-3.047"/>
				<g>
					
						<path id="XMLID_281_" style="fill:#FFFFFF;stroke:#263238;stroke-linecap:round;stroke-linejoin:round;stroke-miterlimit:10;" d="
						M195.14,186.82c-1.571-0.712-2.262-3.028-2.56-4.166c-0.262-0.994-0.421-2.111-0.426-3.334
						c-0.003-0.987-0.106-2.029-0.265-3.036c-0.102-0.671-0.232-1.332-0.363-1.947c-0.469-2.128-1.027-3.738-1.027-3.738
						s1.189-1.772,2.281-0.273c0.281,0.383,0.497,0.876,0.684,1.405c0.298,0.872,0.505,1.839,0.715,2.586
						c0.165,0.586,0.335,1.032,0.556,1.187c0.139,0.095,0.281,0.174,0.426,0.223c0,0,0.012,0.003,0.037,0.029
						c0.055,0.023,0.112,0.042,0.169,0.06c0.336,0.104,0.694,0.113,1.015,0.02c0.153-0.043,0.294-0.11,0.425-0.205
						c0.028-0.009,0.073-0.035,0.108-0.074c0.088-0.079,0.176-0.163,0.26-0.264c0.385-0.428,0.755-1.037,1.105-1.745l0.001-0.005
						c0.431-0.872,0.822-1.893,1.163-2.905l0.001-0.005c0.121-0.374,0.242-0.748,0.347-1.11c0.324-1.068,0.57-2.061,0.719-2.783
						c0.136-0.668,0.294-1.388,0.474-2.098c0.167-0.687,0.356-1.359,0.559-1.975c0.595-1.794,1.332-3.054,2.183-2.394
						c0.77,0.595,0.596,1.275,0.208,2.887c-0.134,0.564-0.294,1.237-0.452,2.057c-0.214,1.135-0.417,2.545-0.526,4.341
						c-0.001,0.005-0.001,0.005-0.001,0.005c-0.016,0.184-0.026,0.375-0.036,0.571l0.584,0.234c-0.002,0.14,0.158-0.084,0.418-0.572
						c0.001-0.005,0.001-0.005,0.001-0.005c0.421-0.79,1.102-2.278,1.778-4.027c0.243-0.622,0.487-1.287,0.716-1.959
						c0.209-0.604,0.407-1.221,0.587-1.833c0.899-3.039,2.314-1.513,2.457-0.457c0.088,0.615-0.301,1.856-0.767,3.221
						c-0.226,0.663-0.468,1.354-0.685,2.013c-0.106,0.33-0.207,0.652-0.295,0.96c-0.372,1.277-0.771,2.594-1.046,3.507
						c-0.038,0.127-0.073,0.244-0.107,0.351l0.6,0.634c0.097-0.119,0.189-0.238,0.277-0.354c0.001-0.005,0.001-0.005,0.002-0.01
						c0.997-1.294,1.68-2.395,2.186-3.312c0.441-0.801,0.745-1.462,1-1.967c0.477-0.96,0.777-1.397,1.465-1.291
						c0.767,0.119,0.73,1.316,0.36,2.661c-0.292,1.06-0.796,2.212-1.287,3.008l-0.001,0.005c-0.111,0.178-0.221,0.335-0.326,0.473
						c-0.445,0.576-0.883,1.441-1.395,2.612c-0.075,0.176-0.154,0.367-0.237,0.556l0.208,0.737c0.204-0.188,0.395-0.379,0.572-0.562
						c0.001-0.005,0.005-0.004,0.005-0.004c0.696-0.706,1.247-1.362,1.699-1.932l0.001-0.005c0.556-0.702,0.969-1.27,1.333-1.624
						c0.366-0.365,0.681-0.506,1.044-0.35c0.566,0.256,0.395,1.187-0.07,2.207c-0.27,0.59-0.638,1.205-1.014,1.729
						c-0.331,0.456-0.663,0.844-0.95,1.091c-0.423,0.367-1.052,1.214-1.69,2.158c-0.206,0.313-0.419,0.634-0.623,0.953
						c-0.742,1.15-1.395,2.252-1.617,2.634c-0.056,0.091-0.085,0.142-0.085,0.142c-0.383,0.966-0.729,1.774-1.055,2.471
						c-0.999,2.134-1.809,3.201-3.027,4.402c-0.643,0.639-1.838,0.72-3.165,0.51"/>
					<path style="fill:none;stroke:#263238;stroke-linecap:round;stroke-linejoin:round;stroke-miterlimit:10;" d="M196.913,175.558
						c0,0,3.574,1.162,3.331,5.235"/>
				</g>
				<path style="fill:none;stroke:#263238;stroke-linecap:round;stroke-linejoin:round;stroke-miterlimit:10;" d="M191.596,197.701
					c-0.226,0.185,3.908,7.706,10.864,7.134"/>
				<path style="fill:#92E3A9;stroke:#263238;stroke-linecap:round;stroke-linejoin:round;stroke-miterlimit:10;" d="
					M185.46,204.835c0,0-1.77,5.546,0,8.849"/>
			</g>
			<path style="fill:none;stroke:#263238;stroke-linecap:round;stroke-linejoin:round;stroke-miterlimit:10;" d="M169.974,193.978
				c0,0,2.017,8.284-0.775,12.911"/>
			<path style="fill:none;stroke:#263238;stroke-linecap:round;stroke-linejoin:round;stroke-miterlimit:10;" d="M172.54,201.284
				c0,0,0.39,4.514-2.542,7.241"/>
			<path style="fill:none;stroke:#263238;stroke-linecap:round;stroke-linejoin:round;stroke-miterlimit:10;" d="M188.435,201.066
				c0,0,4.387,8.443,10.643,8.194"/>
			<path style="fill:none;stroke:#263238;stroke-linecap:round;stroke-linejoin:round;stroke-miterlimit:10;" d="M132.124,183.297
				c0,0,9.857,8.384,17.674,4.352"/>
			<path style="fill:none;stroke:#263238;stroke-linecap:round;stroke-linejoin:round;stroke-miterlimit:10;" d="M122.099,194.788
				c0,0-0.243,10.614-4.601,13.738"/>
			<path style="fill:none;stroke:#263238;stroke-linecap:round;stroke-linejoin:round;stroke-miterlimit:10;" d="M124.209,204.904
				c0,0-3.004,5.275-6.711,5.152"/>
		</g>
		<g>
			<g>
				<defs>
					<path id="XMLID_291_" d="M130.52,104.31c0,1.83-0.75,3.48-1.96,4.67c-1.17,1.13-2.78,1.84-4.55,1.84
						c-1.62,0-3.1-0.59-4.24-1.56c-1.39-1.2-2.27-2.97-2.27-4.95c0-3.59,2.91-6.51,6.51-6.51S130.52,100.72,130.52,104.31z"/>
				</defs>
				<use xlink:href="#XMLID_291_"  style="overflow:visible;fill:#263238;"/>
				<clipPath id="XMLID_00000145021390800729177120000015486123176579880381_">
					<use xlink:href="#XMLID_291_"  style="overflow:visible;"/>
				</clipPath>
				<path style="opacity:0.5;clip-path:url(#XMLID_00000145021390800729177120000015486123176579880381_);fill:#FFFFFF;" d="
					M128.56,108.98c-1.17,1.13-2.78,1.84-4.55,1.84c-1.62,0-3.1-0.59-4.24-1.56c0.32-0.21,0.55-0.33,0.55-0.33s-0.79-0.9-0.4-1.29
					c0.4-0.4,2.18-0.2,1.29-1.98c-0.89-1.78-1.01-5.3,2.8-5.96c2.11-0.37,3.63,2.3,2.74,5.56c0,0-0.37,1.29,0.26,1.39
					c0.63,0.1,0.3,1.48,0.3,1.48S127.92,108.45,128.56,108.98z"/>
				<use xlink:href="#XMLID_291_"  style="overflow:visible;fill:none;stroke:#263238;stroke-miterlimit:10;"/>
			</g>
			<g>
				
					<line style="fill:#FFFFFF;stroke:#263238;stroke-width:2;stroke-linecap:round;stroke-linejoin:round;stroke-miterlimit:10;" x1="136.835" y1="99.696" x2="159.256" y2="99.696"/>
				
					<line style="fill:#FFFFFF;stroke:#263238;stroke-width:2;stroke-linecap:round;stroke-linejoin:round;stroke-miterlimit:10;" x1="136.835" y1="104.312" x2="168.68" y2="104.312"/>
				
					<line style="fill:#FFFFFF;stroke:#263238;stroke-width:2;stroke-linecap:round;stroke-linejoin:round;stroke-miterlimit:10;" x1="136.835" y1="108.927" x2="151.042" y2="108.927"/>
			</g>
		</g>
		<path style="fill:none;stroke:#263238;stroke-linecap:round;stroke-linejoin:round;stroke-miterlimit:10;" d="M121.711,225.217
			h-2.722c-0.824,0-1.491-0.668-1.491-1.492v-2.721c0-0.824,0.668-1.492,1.491-1.492h2.722c0.824,0,1.492,0.668,1.492,1.492v2.721
			C123.202,224.55,122.535,225.217,121.711,225.217z"/>
		<path style="fill:none;stroke:#263238;stroke-linecap:round;stroke-linejoin:round;stroke-miterlimit:10;" d="M130.019,225.217
			h-2.722c-0.824,0-1.491-0.668-1.491-1.492v-2.721c0-0.824,0.668-1.492,1.491-1.492h2.722c0.824,0,1.492,0.668,1.492,1.492v2.721
			C131.51,224.55,130.842,225.217,130.019,225.217z"/>
		<path style="fill:none;stroke:#263238;stroke-linecap:round;stroke-linejoin:round;stroke-miterlimit:10;" d="M138.326,225.217
			h-2.722c-0.824,0-1.491-0.668-1.491-1.492v-2.721c0-0.824,0.668-1.492,1.491-1.492h2.722c0.824,0,1.492,0.668,1.492,1.492v2.721
			C139.818,224.55,139.15,225.217,138.326,225.217z"/>
		<path style="fill:none;stroke:#263238;stroke-linecap:round;stroke-linejoin:round;stroke-miterlimit:10;" d="M203.821,225.217
			h-2.722c-0.824,0-1.491-0.668-1.491-1.492v-2.721c0-0.824,0.668-1.492,1.491-1.492h2.722c0.824,0,1.492,0.668,1.492,1.492v2.721
			C205.312,224.55,204.644,225.217,203.821,225.217z"/>
	</g>
</g>
<g id="Bubble">
	<g>
		<path style="fill:#FFFFFF;stroke:#263238;stroke-miterlimit:10;" d="M223.96,249.928c-18.038-1.828-33.89,8.823-35.407,23.791
			c-0.784,7.729,2.415,15.093,8.17,20.664c-1.318,2.04-3.572,4.76-6.989,6.54c0,0,6.413,1.047,12.64-2.16
			c4.598,2.838,10.084,4.76,16.091,5.369c18.038,1.828,33.89-8.823,35.407-23.791C255.39,265.373,241.997,251.756,223.96,249.928z"
			/>
		<g>
			<path style="fill:#263238;" d="M212.632,266.265c0.196,0.094,0.294,0.23,0.294,0.408c0,0.119-0.051,0.281-0.153,0.485
				c-0.127,0.272-0.196,0.426-0.204,0.459c-0.204,0.63-0.398,1.587-0.581,2.872c-0.183,1.284-0.368,2.229-0.555,2.833
				c-0.051,0.17-0.196,0.255-0.434,0.255c-0.111,0-0.208-0.021-0.293-0.063c-0.315-0.162-0.541-0.477-0.676-0.944
				c-0.009-0.043-0.089-0.468-0.243-1.276c-0.077-0.426-0.149-0.881-0.217-1.365c-0.119,0.238-0.276,0.829-0.472,1.773
				c-0.171,0.816-0.37,1.336-0.6,1.557c-0.068,0.068-0.188,0.077-0.357,0.025c-0.255-0.034-0.426-0.186-0.511-0.459
				c-0.051-0.238-0.102-0.477-0.153-0.715c-0.153-0.612-0.275-1.565-0.364-2.858c-0.089-1.293-0.21-2.237-0.364-2.833
				c-0.025-0.103-0.013-0.2,0.039-0.294c0.051-0.093,0.123-0.145,0.217-0.152c0.068-0.018,0.136-0.025,0.204-0.025
				c0.238,0,0.421,0.106,0.549,0.318c0.136,0.715,0.297,2.105,0.485,4.173c0.068-0.145,0.146-0.414,0.236-0.81
				c0.089-0.396,0.177-0.684,0.262-0.862c0.077-0.323,0.149-0.646,0.217-0.97c0.102-0.391,0.315-0.587,0.638-0.587
				c0.085,0,0.179,0.013,0.281,0.038c0.008,0.052,0.047,0.081,0.115,0.09c0.068,0.009,0.107,0.021,0.115,0.038
				c0.187,0.417,0.327,0.975,0.421,1.672c0.145,0.987,0.234,1.557,0.268,1.71c0.136-0.757,0.276-1.51,0.421-2.259
				c0.179-0.876,0.409-1.591,0.689-2.143c0.059-0.11,0.183-0.166,0.37-0.166C212.411,266.189,212.53,266.214,212.632,266.265z"/>
			<path style="fill:#263238;" d="M218.069,272.225c0.051,0.136,0.076,0.255,0.076,0.357c0,0.17-0.072,0.318-0.217,0.446
				c-0.145,0.128-0.242,0.188-0.293,0.179c-0.417-0.076-0.681-0.412-0.791-1.008c-0.12-0.646-0.26-1.188-0.421-1.621
				c-0.289,0.025-0.579,0.051-0.868,0.076c-0.332,0.043-0.591,0.146-0.778,0.307c-0.094,0.264-0.217,0.732-0.37,1.404
				c-0.145,0.62-0.285,1.093-0.421,1.416c-0.068,0.153-0.212,0.195-0.434,0.128c-0.281-0.094-0.43-0.222-0.447-0.383
				c-0.025-0.324,0.068-0.758,0.281-1.302c0.255-0.621,0.395-1.064,0.421-1.327c0.009-0.077-0.047-0.162-0.166-0.256
				c-0.12-0.093-0.179-0.165-0.179-0.217c0-0.042,0.019-0.087,0.057-0.134c0.039-0.047,0.128-0.085,0.268-0.115
				c0.141-0.029,0.219-0.074,0.236-0.134c0.153-0.425,0.396-1.217,0.727-2.373c0.281-1.004,0.532-1.774,0.753-2.311
				c0.051-0.118,0.158-0.179,0.319-0.179c0.119,0,0.225,0.039,0.319,0.115c0.238,0.204,0.391,0.511,0.459,0.919
				c0.051,0.349,0.098,0.697,0.141,1.046C217.167,269.269,217.609,270.923,218.069,272.225z M216.206,269.787
				c-0.025-0.314-0.081-0.668-0.166-1.06c-0.085-0.34-0.166-0.681-0.242-1.021c-0.255,0.706-0.477,1.412-0.664,2.118
				C215.27,269.8,215.627,269.787,216.206,269.787z"/>
			<path style="fill:#263238;" d="M221.247,265.116c0,0.17-0.124,0.319-0.37,0.446c-0.068,0.034-0.141,0.039-0.217,0.014
				c-0.119-0.034-0.183-0.052-0.191-0.052c-0.051,0-0.102,0.025-0.153,0.077c-0.459,0.459-0.689,1.021-0.689,1.685
				c0,0.246,0.038,0.477,0.115,0.689c0.034,0.094,0.357,0.753,0.97,1.978c0.408,0.816,0.613,1.51,0.613,2.08
				c0,0.468-0.115,0.919-0.345,1.353c-0.077,0.145-0.268,0.332-0.574,0.562c-0.247,0.179-0.468,0.268-0.664,0.268
				c-0.077,0-0.149-0.013-0.217-0.038c-0.255-0.11-0.383-0.251-0.383-0.421c0-0.103,0.064-0.226,0.191-0.37
				c0.034-0.043,0.115-0.068,0.243-0.077c0.127-0.008,0.212-0.06,0.255-0.152c0.179-0.375,0.268-0.758,0.268-1.148
				c0-0.554-0.274-1.355-0.823-2.406c-0.549-1.05-0.823-1.891-0.823-2.52c0-0.52,0.102-0.983,0.306-1.392
				c0.23-0.468,0.557-0.804,0.983-1.008c0.195-0.094,0.387-0.141,0.574-0.141c0.357,0,0.625,0.098,0.804,0.294
				C221.204,264.93,221.247,265.022,221.247,265.116z"/>
			<path style="fill:#263238;" d="M224.781,265.116c0,0.17-0.124,0.319-0.37,0.446c-0.068,0.034-0.141,0.039-0.217,0.014
				c-0.119-0.034-0.183-0.052-0.191-0.052c-0.051,0-0.102,0.025-0.153,0.077c-0.46,0.459-0.689,1.021-0.689,1.685
				c0,0.246,0.038,0.477,0.115,0.689c0.034,0.094,0.357,0.753,0.97,1.978c0.408,0.816,0.613,1.51,0.613,2.08
				c0,0.468-0.115,0.919-0.345,1.353c-0.077,0.145-0.268,0.332-0.574,0.562c-0.247,0.179-0.468,0.268-0.664,0.268
				c-0.077,0-0.149-0.013-0.217-0.038c-0.255-0.11-0.383-0.251-0.383-0.421c0-0.103,0.064-0.226,0.191-0.37
				c0.034-0.043,0.115-0.068,0.243-0.077c0.127-0.008,0.212-0.06,0.255-0.152c0.179-0.375,0.268-0.758,0.268-1.148
				c0-0.554-0.274-1.355-0.823-2.406c-0.549-1.05-0.823-1.891-0.823-2.52c0-0.52,0.102-0.983,0.306-1.392
				c0.23-0.468,0.557-0.804,0.983-1.008c0.195-0.094,0.387-0.141,0.574-0.141c0.357,0,0.625,0.098,0.804,0.294
				C224.738,264.93,224.781,265.022,224.781,265.116z"/>
			<path style="fill:#263238;" d="M230.179,265.882c-0.06,0.596-0.23,1.392-0.51,2.387c-0.383,1.336-0.604,2.144-0.664,2.425
				c-0.187,0.859-0.545,1.642-1.072,2.348c-0.332,0.451-0.715,0.672-1.149,0.664c-0.383-0.009-0.668-0.251-0.855-0.728
				c-0.323-0.8-0.485-1.74-0.485-2.82c0-0.621,0.06-1.421,0.179-2.399c-0.008,0.085-0.013-0.179-0.013-0.791
				c0-0.527,0.204-0.791,0.613-0.791c0.085,0,0.176,0.023,0.274,0.07c0.098,0.047,0.194,0.096,0.287,0.147
				c0.009,0.434-0.004,1.072-0.038,1.914c-0.042,0.902-0.064,1.553-0.064,1.952c0,0.426,0.013,0.813,0.039,1.162
				c0.017,0.178,0.093,0.519,0.23,1.021c0.357-0.399,0.638-0.932,0.842-1.596c0.068-0.221,0.204-0.824,0.408-1.811
				c0.162-0.749,0.345-1.336,0.549-1.761c0.06-0.119,0.111-0.345,0.153-0.677c0.042-0.332,0.093-0.562,0.153-0.69
				c0.093-0.204,0.255-0.306,0.485-0.306C229.838,265.602,230.051,265.695,230.179,265.882z"/>
			<path style="fill:#263238;" d="M234.186,268.422c-0.323,0.697-0.6,1.161-0.829,1.391c-0.357,0.357-0.553,0.553-0.587,0.587
				c-0.247,0.196-0.493,0.314-0.74,0.357c-0.034,0.17-0.051,0.37-0.051,0.6c0,0.162,0.013,0.406,0.038,0.734
				c0.026,0.327,0.039,0.567,0.039,0.721c0,0.578-0.136,1.012-0.409,1.302l-0.357-0.191c-0.145-0.077-0.226-0.171-0.243-0.281
				c-0.085-0.553-0.127-1.169-0.127-1.851c0-0.45,0.025-1.122,0.077-2.016c0.051-0.894,0.076-1.57,0.076-2.029
				c0-0.663-0.038-1.271-0.115-1.825c-0.068,0.026-0.132-0.017-0.191-0.127c-0.059-0.11-0.111-0.175-0.153-0.191
				c0.043-0.272,0.115-0.408,0.217-0.408c0.127-0.043,0.391-0.034,0.791,0.025c1.106,0.179,1.94,0.663,2.502,1.454
				c0.179,0.256,0.267,0.545,0.267,0.868C234.39,267.821,234.322,268.115,234.186,268.422z M233.356,267.439
				c0.042-0.34-0.103-0.607-0.434-0.804c-0.017,0-0.323-0.123-0.919-0.37c0.094,1.566,0.124,2.663,0.089,3.293
				C232.85,268.843,233.271,268.137,233.356,267.439z"/>
		</g>
		<g>
			<path style="fill:#263238;" d="M208.98,278.736c-0.155,0.644-0.548,1.228-1.18,1.752c-0.608,0.43-1.215,0.852-1.823,1.27
				c0.036,0.179,0.158,0.313,0.366,0.402c0.209,0.09,0.408,0.176,0.599,0.26c0.989,0.644,1.484,1.406,1.484,2.288
				c0,0.68-0.232,1.305-0.697,1.877c-0.357,0.441-0.888,0.876-1.591,1.306c-0.572,0.333-1.144,0.667-1.716,1.001
				c-0.143,0.083-0.298,0.125-0.465,0.125c-0.394,0-0.668-0.161-0.822-0.482c0.023-1.001,0.047-1.997,0.071-2.986
				c0.024-1.191,0.089-2.175,0.197-2.949c-0.251-0.167-0.376-0.358-0.376-0.572c0-0.107,0.045-0.206,0.134-0.295
				c0.089-0.09,0.212-0.188,0.366-0.295c0.143-1.813,0.173-3.48,0.089-5.007c-0.56-0.106-0.93-0.357-1.108-0.751
				c-0.012-0.047,0.009-0.118,0.063-0.214c0.054-0.096,0.081-0.173,0.081-0.232c0.274-0.203,0.578-0.304,0.912-0.304
				c0.155,0,0.358,0.023,0.608,0.071c0.358,0.06,0.59,0.096,0.697,0.107c0.572,0.071,1.145,0.25,1.717,0.536
				c1.287,0.668,2.044,1.317,2.271,1.948C209.01,278.045,209.051,278.427,208.98,278.736z M206.763,284.851
				c0.023-0.131,0.036-0.256,0.036-0.375c0-0.357-0.113-0.673-0.34-0.947c-0.608-0.298-0.995-0.447-1.162-0.447
				c-0.095,0-0.185,0.018-0.268,0.054c0.012,0.119,0.018,0.25,0.018,0.393c0,0.25-0.033,0.635-0.099,1.152
				c-0.065,0.518-0.098,0.909-0.098,1.172c0,0.381,0.047,0.727,0.143,1.036c0.143-0.167,0.366-0.343,0.67-0.527
				c0.304-0.185,0.515-0.349,0.635-0.491C206.513,285.62,206.667,285.28,206.763,284.851z M207.299,277.843
				c-0.06-0.441-0.418-0.781-1.073-1.02c-0.095-0.035-0.244-0.113-0.447-0.232c-0.143-0.095-0.262-0.143-0.357-0.143
				c-0.048,0-0.102,0.012-0.161,0.035c-0.012,0.203-0.018,0.418-0.018,0.644c0,0.31,0.024,0.835,0.072,1.573
				c0.036,0.68,0.047,1.21,0.036,1.592c0.083,0,0.208-0.063,0.375-0.188c0.167-0.126,0.262-0.194,0.286-0.206
				c0.357-0.167,0.673-0.447,0.947-0.84C207.234,278.665,207.347,278.26,207.299,277.843z"/>
			<path style="fill:#263238;" d="M216.131,276.77c-0.083,0.835-0.322,1.949-0.715,3.344c-0.536,1.871-0.846,3.004-0.93,3.396
				c-0.262,1.204-0.763,2.301-1.501,3.29c-0.465,0.632-1.001,0.941-1.609,0.93c-0.536-0.012-0.936-0.352-1.198-1.02
				c-0.453-1.12-0.68-2.437-0.68-3.951c0-0.869,0.083-1.99,0.25-3.361c-0.012,0.12-0.018-0.25-0.018-1.108
				c0-0.738,0.286-1.108,0.858-1.108c0.119,0,0.247,0.033,0.384,0.099c0.137,0.065,0.271,0.134,0.402,0.206
				c0.012,0.607-0.006,1.501-0.054,2.682c-0.06,1.264-0.089,2.175-0.089,2.735c0,0.596,0.018,1.139,0.054,1.627
				c0.024,0.25,0.131,0.727,0.322,1.43c0.501-0.56,0.894-1.305,1.18-2.234c0.095-0.31,0.286-1.156,0.572-2.539
				c0.227-1.049,0.483-1.871,0.769-2.467c0.083-0.167,0.155-0.483,0.214-0.948c0.06-0.465,0.131-0.786,0.215-0.965
				c0.131-0.286,0.357-0.43,0.679-0.43C215.654,276.376,215.953,276.508,216.131,276.77z"/>
			<path style="fill:#263238;" d="M221.834,282.563c-0.12,0.274-0.232,0.549-0.34,0.822c-0.143,0.322-0.298,0.578-0.465,0.768
				c-0.37,0.465-0.739,0.924-1.108,1.377c-0.441,0.549-0.84,0.93-1.198,1.145c-0.12,0.143-0.25,0.292-0.393,0.446
				c-0.143,0.155-0.286,0.232-0.429,0.232c-0.071,0-0.155-0.018-0.25-0.053c-0.096-0.036-0.2-0.078-0.313-0.126
				c-0.113-0.048-0.194-0.125-0.241-0.232c-0.036-0.5-0.054-1.036-0.054-1.608c0-0.584,0.023-1.454,0.071-2.61
				c0.048-1.156,0.072-2.026,0.072-2.61c0-0.774-0.03-1.484-0.089-2.128c-0.012-0.012-0.143-0.148-0.394-0.411
				c-0.155-0.154-0.232-0.298-0.232-0.429c0-0.06,0.012-0.119,0.036-0.179c0.06-0.144,0.19-0.227,0.394-0.251
				c0.155-0.023,0.31-0.041,0.465-0.054c1.001,0.215,2.05,0.775,3.146,1.681c0.286,0.239,0.519,0.489,0.697,0.751
				c0.572,0.847,0.858,1.64,0.858,2.378C222.067,281.853,221.989,282.217,221.834,282.563z M220.547,280.649
				c-0.107-0.751-0.745-1.412-1.913-1.984c-0.083,1.99-0.107,4.101-0.072,6.329c1.347-1.347,2.02-2.628,2.02-3.844
				C220.583,280.983,220.571,280.816,220.547,280.649z"/>
			<path style="fill:#263238;" d="M228.092,282.563c-0.12,0.274-0.232,0.549-0.34,0.822c-0.143,0.322-0.298,0.578-0.465,0.768
				c-0.37,0.465-0.739,0.924-1.108,1.377c-0.441,0.549-0.84,0.93-1.198,1.145c-0.12,0.143-0.251,0.292-0.394,0.446
				c-0.143,0.155-0.286,0.232-0.429,0.232c-0.071,0-0.155-0.018-0.25-0.053c-0.096-0.036-0.2-0.078-0.313-0.126
				c-0.113-0.048-0.194-0.125-0.241-0.232c-0.036-0.5-0.054-1.036-0.054-1.608c0-0.584,0.023-1.454,0.071-2.61
				c0.048-1.156,0.072-2.026,0.072-2.61c0-0.774-0.03-1.484-0.089-2.128c-0.012-0.012-0.143-0.148-0.394-0.411
				c-0.155-0.154-0.232-0.298-0.232-0.429c0-0.06,0.012-0.119,0.036-0.179c0.06-0.144,0.19-0.227,0.394-0.251
				c0.155-0.023,0.31-0.041,0.465-0.054c1.001,0.215,2.05,0.775,3.146,1.681c0.286,0.239,0.518,0.489,0.697,0.751
				c0.572,0.847,0.858,1.64,0.858,2.378C228.324,281.853,228.247,282.217,228.092,282.563z M226.804,280.649
				c-0.107-0.751-0.745-1.412-1.913-1.984c-0.084,1.99-0.107,4.101-0.072,6.329c1.347-1.347,2.021-2.628,2.021-3.844
				C226.84,280.983,226.828,280.816,226.804,280.649z"/>
			<path style="fill:#263238;" d="M234.993,275.93c-0.334,1.347-0.948,3.099-1.841,5.256c-1.049,2.516-1.723,4.25-2.021,5.203
				c-0.06,0.19-0.089,0.429-0.089,0.715c0.012,0.394,0.012,0.644,0,0.751c-0.036,0.417-0.256,0.626-0.662,0.626
				c-0.203,0.023-0.42-0.045-0.652-0.206c-0.232-0.16-0.343-0.33-0.331-0.509c0.036-0.871,0.256-1.865,0.662-2.986
				c0.369-0.953,0.739-1.907,1.108-2.86c-0.846-2.265-1.567-3.922-2.163-4.971c-0.036-0.06-0.054-0.119-0.054-0.179
				c0-0.131,0.074-0.253,0.224-0.366c0.148-0.113,0.295-0.17,0.438-0.17c0.023,0,0.25,0.065,0.679,0.196
				c0.298,0.453,0.608,1.037,0.93,1.753c0.274,0.607,0.542,1.215,0.805,1.823c0.238-0.715,0.477-1.424,0.715-2.128
				c0.274-0.822,0.578-1.502,0.912-2.038c0.095-0.167,0.262-0.25,0.5-0.25C234.486,275.59,234.766,275.703,234.993,275.93z"/>
			<path style="fill:#263238;" d="M237.871,286.871c0.024,0.167,0,0.331-0.072,0.492c-0.071,0.16-0.158,0.244-0.259,0.25
				c-0.102,0.006-0.176,0.032-0.224,0.08c-0.048,0.048-0.096,0.065-0.143,0.054c-0.632-0.238-0.989-0.548-1.073-0.93
				c-0.036-0.167,0.077-0.336,0.34-0.51c0.262-0.172,0.447-0.253,0.554-0.241c0.19,0.024,0.378,0.107,0.563,0.251
				C237.743,286.46,237.847,286.645,237.871,286.871z M239.605,275.965c-0.072,0.835-0.376,2.337-0.912,4.506
				c-0.465,1.884-0.679,3.427-0.644,4.631c0,0.107-0.063,0.205-0.188,0.295c-0.125,0.089-0.242,0.122-0.349,0.098
				c-0.608-0.118-0.93-0.417-0.966-0.894c-0.012-0.25-0.018-0.501-0.018-0.751c0-1.12,0.179-2.491,0.536-4.112
				c0.548-2.396,0.846-3.754,0.894-4.076c0.024-0.143,0.113-0.244,0.268-0.304c0.155-0.059,0.304-0.065,0.447-0.018
				c0.202,0.06,0.405,0.119,0.608,0.179C239.51,275.614,239.617,275.763,239.605,275.965z"/>
		</g>
	</g>
</g>
<g id="Character">
	<g>
		<g>
			<g>
				<defs>
					<path id="XMLID_285_" d="M95.989,388.022c0.46-15.321,48.618,2.346,63.941,6.402c15.323,4.056,15.411,35.664,5.125,38.048
						c0,0,0.189,3.364-13.451,6.978c-3.642,0.965-12.11,0-12.11,0c-4.34,5.341-30.607,5.445-39.945,2.572
						c-5.143-1.582-17.155-12.759-7.319-37.582C93.549,401.112,95.791,394.614,95.989,388.022z"/>
				</defs>
				<use xlink:href="#XMLID_285_"  style="overflow:visible;fill:#BFBFBF;"/>
				<clipPath id="XMLID_00000113341435979933813530000003752445889590646417_">
					<use xlink:href="#XMLID_285_"  style="overflow:visible;"/>
				</clipPath>
				<path style="opacity:0.3;clip-path:url(#XMLID_00000113341435979933813530000003752445889590646417_);fill-opacity:0.7;" d="
					M165.05,432.47c0,0,0.19,3.37-13.45,6.98c-3.64,0.96-12.11,0-12.11,0c-4.34,5.34-30.6,5.45-39.94,2.57
					c-2.6-0.8-6.95-4.05-9.35-10.27c2.19,3.9,5.56,7.08,10.73,7.7c14.97,1.78,21.56,1.78,21.56,1.78s-7.79-5.14-6.27-7.32
					c1.53-2.17,16.36,3.53,21.89,2.51c5.53-1.03,10.87,0.51,8.44-9.34c-2.43-9.85-29.5-24.6-36.12-22.49
					c-6.62,2.11-12.27-0.88-12.27-0.88s6.93-16.83,48-9.46c8.42,1.51,15.54,3.49,21.45,5.85
					C174.83,410.47,173.18,430.59,165.05,432.47z"/>
				<use xlink:href="#XMLID_285_"  style="overflow:visible;fill:none;stroke:#263238;stroke-miterlimit:10;"/>
			</g>
			<path style="fill:none;stroke:#263238;stroke-linecap:round;stroke-linejoin:round;stroke-miterlimit:10;" d="M146.692,429.116
				c0,0,1.451,4.203,0,4.796c-1.451,0.594-5.469,3.956-14.537,1.78"/>
			<path style="fill:none;stroke:#263238;stroke-linecap:round;stroke-linejoin:round;stroke-miterlimit:10;" d="M141.13,436.109
				c0,0-0.065,0.768-1.636,3.341"/>
			<path style="fill:none;stroke:#263238;stroke-linecap:round;stroke-linejoin:round;stroke-miterlimit:10;" d="M147.258,431.45
				c0,0,7.897,2.131,11.643,2"/>
			<path style="fill:none;stroke:#263238;stroke-linecap:round;stroke-linejoin:round;stroke-miterlimit:10;" d="M114.483,403.706
				c0,0-6.23,0.141-7.021,4.096c-0.791,3.956-1.978,13.481,0,15.444"/>
			<path style="fill:none;stroke:#263238;stroke-linecap:round;stroke-linejoin:round;stroke-miterlimit:10;" d="M112.209,401.67
				c0,0-11.077,2.176-14.044,16.22"/>
			<path style="fill:none;stroke:#263238;stroke-linecap:round;stroke-linejoin:round;stroke-miterlimit:10;" d="M93.505,408.954
				c0,0-2.461,12.884,1.297,18.229c3.758,5.344,11.577-1.485,11.577-1.485"/>
		</g>
		<g>
			<path style="fill:#263238;" d="M146.551,268.118c0,0,0.626-9.915-12.68-9.34c-13.306,0.574-16.58,11.152-15.316,21.248
				c1.264,10.096,6.317,22.656,2.01,28.413c-4.307,5.757-1.149,10.925,4.594,9.777c0,0-4.307,0-0.861-3.876
				c3.446-3.876,8.332-2.712,10.339-19.948c2.008-17.236,9.511-19.246,9.511-19.246L146.551,268.118z"/>
			<path style="opacity:0.2;fill:none;stroke:#FFFFFF;stroke-linecap:round;stroke-linejoin:round;stroke-miterlimit:10;" d="
				M144.149,269.004c0,0-7.017-10.543-17.501-6.587"/>
			<path style="opacity:0.2;fill:none;stroke:#FFFFFF;stroke-linecap:round;stroke-linejoin:round;stroke-miterlimit:10;" d="
				M142.33,272.582c0,0-6.852-4.716-13.442-0.319c-6.591,4.397-0.396,18.256-0.23,26.953c0.166,8.697-6.828,10.011-7.35,14.235"/>
		</g>
		<g>
			<path style="fill:#FFFFFF;stroke:#263238;stroke-linecap:round;stroke-linejoin:round;stroke-miterlimit:10;" d="
				M192.267,354.682c0,0,1.834-3.129,4.66-4.348c2.825-1.219,3.87,0.867,5.61,2.174c0,0,1.596-0.259,3.148,4.092
				c0,0,1.726,1.218,1.9,1.915c0.174,0.696,1.705,6.365,0.939,7.621c-0.765,1.256-8.022,2.445-8.022,2.445L192.267,354.682z"/>
			<path style="fill:none;stroke:#263238;stroke-linecap:round;stroke-linejoin:round;stroke-miterlimit:10;" d="M202.537,354.164
				c0,0,0.957,1.852,0.74,3.972"/>
			<path style="fill:none;stroke:#263238;stroke-linecap:round;stroke-linejoin:round;stroke-miterlimit:10;" d="M198.207,352.51
				c0,0-0.957,1.369,0,2.504"/>
			<path style="fill:none;stroke:#263238;stroke-linecap:round;stroke-linejoin:round;stroke-miterlimit:10;" d="M206.018,358.516
				c0,0,0.273,1.333,0.136,3.234"/>
			<path style="fill:#FFFFFF;stroke:#263238;stroke-linecap:round;stroke-linejoin:round;stroke-miterlimit:10;" d="
				M185.213,358.516c0-2.968,7.054-5.57,7.576-9.138c0.467-3.192,4.137,0.087,1.735,5.305"/>
		</g>
		<path style="fill:#92E3A9;stroke:#263238;stroke-linecap:round;stroke-linejoin:round;stroke-miterlimit:10;" d="M158.902,320.659
			c0,0,9.285,2.879,13.439,7.824c4.154,4.945,8.7,22.549,8.7,22.549s1.784,1.582,1.784,2.571s-14.578,11.077-18.267,11.473
			c-3.689,0.396-5.077-13.846-5.077-13.846"/>
		<g>
			<g>
				<defs>
					<path id="XMLID_284_" d="M132.156,404.808c0,0,46.731-50.02,63.321-50.021c10.787-0.001,14.215,7.805,17.38,14.015
						c3.165,6.21,46.077,53.606,46.077,53.606l-10.549,5.128c0,0-20.851-11.104-36.582-20.602
						c-13.978-8.44-15.452-17.424-17.422-18.913c-1.97-1.489-15.414,31.079-29.927,41.229
						C164.452,429.25,137.341,438.978,132.156,404.808z"/>
				</defs>
				<use xlink:href="#XMLID_284_"  style="overflow:visible;fill:#FFFFFF;"/>
				<clipPath id="XMLID_00000160889265780646834100000002982327266244359358_">
					<use xlink:href="#XMLID_284_"  style="overflow:visible;"/>
				</clipPath>
				<path style="opacity:0.4;clip-path:url(#XMLID_00000160889265780646834100000002982327266244359358_);fill:#92E3A9;" d="
					M258.13,421.52c-0.24,0.54-0.54,1.11-0.89,1.71l-8.86,4.31c0,0-20.85-11.11-36.58-20.61c-13.98-8.44-15.45-17.42-17.42-18.91
					c0,0-0.02-0.01-0.07-0.04c-2.2-0.73-15.5,31.23-29.86,41.27c0,0-27.11,9.73-32.29-24.44c0,0,37.48-40.11,57.22-48.49
					c0.73,2.5,2.15,6.55,4.2,8.77c3.09,3.35,12.98,8.1,15.16,9.88l-4.16,0.79c0,0,23.64,30.87,29.47,34.81
					c5.84,3.94,13.5,6.33,13.5,6.33s1.03-1.99,5.19-1.37C255.21,418.29,257.12,420.4,258.13,421.52z"/>
				
					<use xlink:href="#XMLID_284_"  style="overflow:visible;fill:none;stroke:#263238;stroke-linecap:round;stroke-linejoin:round;stroke-miterlimit:10;"/>
			</g>
			<path style="fill:none;stroke:#263238;stroke-linecap:round;stroke-linejoin:round;stroke-miterlimit:10;" d="M194.38,388.022
				c0,0-4.738-2.561-6.845,0"/>
		</g>
		<g>
			<path style="fill:#92E3A9;stroke:#263238;stroke-linecap:round;stroke-linejoin:round;stroke-miterlimit:10;" d="
				M244.127,429.247c0,0-7.647-4.532-3.965-7.93c3.682-3.399,9.625-0.863,9.625-0.863s-0.278-5.368,6.236-5.935
				c6.514-0.566,6.797,1.416,6.797,1.416s1.983,7.478,4.815,10.678c2.832,3.2,12.462,7.449,14.161,9.714
				c1.699,2.266,1.983,6.231,1.983,6.231s-9.793,2.824-27.473,0c-3.216-0.514-7.582,1.255-13.029,0
				C243.277,442.559,242.14,434.039,244.127,429.247z"/>
			<path style="fill:none;stroke:#263238;stroke-linecap:round;stroke-linejoin:round;stroke-miterlimit:10;" d="M249.787,420.454
				c3.752,1.137,6.301,0.854,7.151,2.978c0.85,2.124,3.965,8.214,11.329,10.479"/>
			<path style="fill:none;stroke:#263238;stroke-width:2;stroke-linecap:round;stroke-linejoin:round;stroke-miterlimit:10;" d="
				M255.38,425.698c0,0,3.709-2.215,10.139-2.453"/>
			<path style="fill:none;stroke:#263238;stroke-width:2;stroke-linecap:round;stroke-linejoin:round;stroke-miterlimit:10;" d="
				M259.027,429.979c0,0,4.975-3.399,9.285-2.832"/>
			<path style="fill:none;stroke:#263238;stroke-width:2;stroke-linecap:round;stroke-linejoin:round;stroke-miterlimit:10;" d="
				M263.027,432.921c0,0,3.365-2.485,9.047-2.942"/>
		</g>
		<g>
			<defs>
				<path id="XMLID_286_" d="M169.301,339.385c-0.777,4.079-2.67,8.432-5.271,12.835c-10.282,17.407-19.78,29.275-19.78,29.275
					l3.352,12.624c0,0-46.997,3.596-58.038,18.771c0,0-4.256,0,1.669-8.083l5.548-26.872c0,0,2.681-63.796,39.714-61.766
					c13.832,0.758,22.608,3.551,27.638,7.66"/>
			</defs>
			<use xlink:href="#XMLID_286_"  style="overflow:visible;fill:#92E3A9;"/>
			<clipPath id="XMLID_00000173156186783886099930000002735886439703412125_">
				<use xlink:href="#XMLID_286_"  style="overflow:visible;"/>
			</clipPath>
			<path style="opacity:0.3;clip-path:url(#XMLID_00000173156186783886099930000002735886439703412125_);fill-opacity:0.7;" d="
				M164.03,352.22c-10.28,17.41-19.78,29.27-19.78,29.27l3.35,12.63c0,0-21.85,1.67-39.26,7.55c-2.41-6.06,3.87-4.22,3.87-4.22
				l-2.59-3.2l4.34-0.13c-3.78-3.33-1.75-10.49-1.75-10.49l6.09,5.49c-8.4-10.17-8.68-34.11-8.68-34.11s17.62-19.8,23.31-14.8
				c5.69,5.01,1.43,16.36,8.2,16.58c6.66,0.21,26.89-14.32,27.52-14.77C167.68,345.32,166.08,348.76,164.03,352.22z"/>
			
				<use xlink:href="#XMLID_286_"  style="overflow:visible;fill:none;stroke:#263238;stroke-linecap:round;stroke-linejoin:round;stroke-miterlimit:10;"/>
		</g>
		<path style="fill:#FFFFFF;stroke:#263238;stroke-linecap:round;stroke-linejoin:round;stroke-miterlimit:10;" d="M163.35,314.34
			c-2.67,0.53-4.64,1.63-6.09,3.01c-1.62,1.53-2.59,3.4-3.17,5.22c-1.15,3.65-0.71,7.09-0.71,7.09
			c-15.58,1.29-19.51-11.28-19.51-11.28c12.68-7.41,4.34-19.16,4.34-19.16C151.39,298.06,163.35,314.34,163.35,314.34z"/>
		<g>
			<g>
				<defs>
					<path id="XMLID_283_" d="M110.746,407.727c0,0,48.141-52.939,64.731-52.94c10.787-0.001,14.215,7.805,17.38,14.015
						c3.165,6.21,46.077,53.606,46.077,53.606l-12.549,7.128c0,0-10.648-15.648-27.582-21.602
						c-15.404-5.417-22.452-18.424-24.422-19.913c-1.97-1.489-16.824,33.998-31.337,44.148
						C143.043,432.169,115.931,441.897,110.746,407.727z"/>
				</defs>
				<use xlink:href="#XMLID_283_"  style="overflow:visible;fill:#FFFFFF;"/>
				<clipPath id="XMLID_00000099628486975096879360000002627559406792028586_">
					<use xlink:href="#XMLID_283_"  style="overflow:visible;"/>
				</clipPath>
				<path style="opacity:0.4;clip-path:url(#XMLID_00000099628486975096879360000002627559406792028586_);fill:#92E3A9;" d="
					M175.61,389.39c-0.53-0.67-0.94-1.15-1.23-1.37c0,0-0.02-0.01-0.07-0.04c-2.2-0.73-16.9,34.14-31.27,44.19
					c0,0-12.81,4.6-22.5-3.63c0.47,0.15,11.75,3.83,19.56-0.01c0,0,11.363-8.076,19.8-23.96c4.158-7.828,8.07-16.85,10.91-17.65
					c0.01,0,0.02-0.01,0.03-0.01C173.52,386.18,175.41,389.07,175.61,389.39z"/>
				
					<use xlink:href="#XMLID_283_"  style="overflow:visible;fill:none;stroke:#263238;stroke-linecap:round;stroke-linejoin:round;stroke-miterlimit:10;"/>
			</g>
			<path style="fill:none;stroke:#263238;stroke-linecap:round;stroke-linejoin:round;stroke-miterlimit:10;" d="M174.38,388.022
				c0,0-4.738-2.561-6.845,0"/>
		</g>
		<g>
			<path style="fill:#92E3A9;stroke:#263238;stroke-linecap:round;stroke-linejoin:round;stroke-miterlimit:10;" d="
				M224.127,429.247c0,0-7.647-4.532-3.965-7.93c3.682-3.399,9.625-0.863,9.625-0.863s-0.278-5.368,6.236-5.935
				c6.514-0.566,6.798,1.416,6.798,1.416s1.983,7.478,4.815,10.678c2.832,3.2,12.462,7.449,14.161,9.714
				c1.699,2.266,1.983,6.231,1.983,6.231s-9.792,2.824-27.473,0c-3.216-0.514-7.582,1.255-13.029,0
				C223.277,442.559,222.14,434.039,224.127,429.247z"/>
			<path style="fill:none;stroke:#263238;stroke-linecap:round;stroke-linejoin:round;stroke-miterlimit:10;" d="M229.787,420.454
				c3.752,1.137,6.301,0.854,7.151,2.978c0.85,2.124,3.965,8.214,11.329,10.479"/>
			<path style="fill:none;stroke:#263238;stroke-width:2;stroke-linecap:round;stroke-linejoin:round;stroke-miterlimit:10;" d="
				M235.38,425.698c0,0,3.709-2.215,10.139-2.453"/>
			<path style="fill:none;stroke:#263238;stroke-width:2;stroke-linecap:round;stroke-linejoin:round;stroke-miterlimit:10;" d="
				M239.027,429.979c0,0,4.975-3.399,9.285-2.832"/>
			<path style="fill:none;stroke:#263238;stroke-width:2;stroke-linecap:round;stroke-linejoin:round;stroke-miterlimit:10;" d="
				M243.027,432.921c0,0,3.365-2.485,9.047-2.942"/>
		</g>
		<g>
			<g>
				<defs>
					<path id="XMLID_287_" d="M204.22,319.88l-12.2,19.28l-11.18,4.58l-1.38,0.57v-8.51l9.16-15.29c0.45-0.76,1.24-1.27,2.12-1.37
						l11.4-1.31c0.17-0.02,0.34,0.03,0.49,0.12l1.39,0.97c0.15,0.1,0.25,0.24,0.29,0.41C204.35,319.51,204.33,319.71,204.22,319.88z
						"/>
				</defs>
				<use xlink:href="#XMLID_287_"  style="overflow:visible;fill:#757575;"/>
				<clipPath id="XMLID_00000125603783590725757590000004535547714950326422_">
					<use xlink:href="#XMLID_287_"  style="overflow:visible;"/>
				</clipPath>
				<path style="opacity:0.3;clip-path:url(#XMLID_00000125603783590725757590000004535547714950326422_);fill-opacity:0.7;" d="
					M204.22,319.88l-12.2,19.28l-11.18,4.58l-1.25-3.78l10.64-17.4c0.46-0.76,1.23-1.27,2.11-1.41l11.97-1.82
					C204.35,319.51,204.33,319.71,204.22,319.88z"/>
				
					<use xlink:href="#XMLID_287_"  style="overflow:visible;fill:none;stroke:#263238;stroke-linecap:round;stroke-linejoin:round;stroke-miterlimit:10;"/>
			</g>
			<path style="fill:#FFFFFF;stroke:#263238;stroke-linecap:round;stroke-linejoin:round;stroke-miterlimit:10;" d="
				M127.505,338.374l5.098,30.857c11.588-10.336,24.353-11.399,37.088-23.207c0,0,2.253-2.935,3.145-5.475
				c1.315-3.747,1.01-9.383,6.626-12.857c0.875-0.541,4.275-5.241,4.549-4.451c1.582,4.549-4.328,7.79-4.186,8.893
				c0.238,1.836,0.619,3.65,1.219,4.129c1.319,1.055,7.648-5.538,12.396-5.275c4.747,0.264,6.066,3.264,3.428,4.319
				c0,0,1.712,1.656,0,2.918c-1.879,1.385-2.621,2.027-2.621,2.027c0.198,3.066-2.769,4.352-2.769,4.352
				c-2.138,5.637-14.126,7.48-14.126,7.48s-26.835,26.641-42.989,35.938c-5.921,3.407-6.934,4.643-13.978-6.395
				c-6.396-10.022-9.639-27.956-9.639-27.956"/>
			<path style="fill:none;stroke:#263238;stroke-linecap:round;stroke-linejoin:round;stroke-miterlimit:10;" d="M193.571,332.835
				c0.132,0.659-2.044,1.978-1.549,3.033c0.494,1.055,1.22,1.451,0,3.297c-1.22,1.846,0.784,2.901-1.471,5.143"/>
			<path style="fill:none;stroke:#263238;stroke-linecap:round;stroke-linejoin:round;stroke-miterlimit:10;" d="M196.868,335.308
				c0,0-1.879-0.198-3.758,0.643"/>
		</g>
		<path style="fill:#92E3A9;stroke:#263238;stroke-linecap:round;stroke-linejoin:round;stroke-miterlimit:10;" d="M124.077,322.549
			c0,0,6.569,0.989,8.526,6.33c1.957,5.341-1.76,25.086,0,26.488c1.76,1.402-1.324,5.85-1.324,5.85s-8.788-0.56-16.006,9.364
			c0,0-3.46-0.164-3.658-1.746c-0.198-1.583-1.582-7.517-3.363-11.077c-1.78-3.56,0-12.857,0-12.857"/>
		<path style="fill:#263238;" d="M157.26,317.35c-1.62,1.53-2.59,3.4-3.17,5.22c-3.77-2.48-4.1-9.12-4.1-9.12L157.26,317.35z"/>
		<g>
			<path style="fill:#263238;" d="M171.307,272.582c0,0,9.558,4.43,7.978,15.341c-1.579,10.911-7.753,18.807-14.788,19.238
				C157.463,307.591,171.307,272.582,171.307,272.582z"/>
			<path style="fill:#FFFFFF;stroke:#263238;stroke-linecap:round;stroke-linejoin:round;stroke-miterlimit:10;" d="
				M139.576,306.438c-9.744-15.362-7.556-37.249,10.855-39.061c19.596-1.929,27.395,13.701,25.098,24.9
				c-1.715,8.36,3.397,11.451-7.441,26.513c-3.882,5.395-18.951-0.413-19.669-6.25"/>
			<path style="fill:none;stroke:#263238;stroke-linecap:round;stroke-linejoin:round;stroke-miterlimit:10;" d="M163.349,290.22
				c0,0-4.06-1.436-8.12,1.795"/>
			<path style="fill:none;stroke:#263238;stroke-linecap:round;stroke-linejoin:round;stroke-miterlimit:10;" d="M170.815,290.416
				c0,0,3.159-1.273,4.83,1.206"/>
			<path style="fill:#263238;" d="M160.207,297.782c-0.187,1.034-0.75,1.797-1.257,1.706s-0.767-1.004-0.58-2.038
				c0.187-1.034,0.75-1.797,1.257-1.706C160.135,295.836,160.394,296.748,160.207,297.782z"/>
			<path style="fill:#263238;" d="M172.712,297.959c-0.187,1.034-0.75,1.797-1.257,1.706c-0.507-0.092-0.767-1.004-0.58-2.038
				c0.187-1.034,0.75-1.797,1.257-1.706C172.639,296.013,172.899,296.925,172.712,297.959z"/>
			<path style="fill:none;stroke:#263238;stroke-linecap:round;stroke-linejoin:round;stroke-miterlimit:10;" d="M168.661,298.977
				c0.215,2.369,3.107,3.876,3.133,4.881c0.026,1.005-1.769,2.656-3.133,3.302"/>
			<path style="fill:none;stroke:#263238;stroke-linecap:round;stroke-linejoin:round;stroke-miterlimit:10;" d="M168.087,310.534
				c0,0-4.522,1.436-9.906-0.933"/>
			<path style="fill:none;stroke:#263238;stroke-linecap:round;stroke-linejoin:round;stroke-miterlimit:10;" d="M159.022,309.942
				c0,0,0.649,4.371,4.328,4.397c2.8,0.019,3.971-3.622,3.971-3.622"/>
			<path style="fill:#263238;" d="M163.349,264.951c-9.476-3.015-13.998,0-13.998,0c-20.674,4.092-19.813,17.444-17.659,31.226
				c2.154,13.783,9.214,12.206,9.214,12.206s2.49-1.219,0.692-10.768c-0.021-0.109,0.129-0.198,0.193-0.297
				c0.415,0.666,1.181,0.919,2.463,0.474c3.587-1.244,5.719-4.598,6.848-7.053c16.218-4.715,23.978-10.53,24.815-12.652
				C177.146,274.974,172.825,267.966,163.349,264.951z"/>
			<path style="fill:#FFFFFF;stroke:#263238;stroke-linecap:round;stroke-linejoin:round;stroke-miterlimit:10;" d="
				M146.551,297.616c0,0-2.154-5.458-4.953-5.602c-2.8-0.144-5.314,6.748-1.688,11.055c3.626,4.307,6.641,3.23,6.641,3.23"/>
			<path style="fill:#263238;" d="M171.307,272.582c0,0,4.573,0.426,4.328,7.16c-0.245,6.734-19.906,13.418-31.486,10.345v-1.675
				c0,0,5.855,2.07,14.653,0c8.798-2.07,15.25-5.105,13.941-11.243C171.433,271.03,171.307,272.582,171.307,272.582z"/>
			<path style="opacity:0.2;fill:none;stroke:#FFFFFF;stroke-linecap:round;stroke-linejoin:round;stroke-miterlimit:10;" d="
				M172.196,274.757c0,0-13.702,12.188-32.097,9.616"/>
			<path style="opacity:0.2;fill:none;stroke:#FFFFFF;stroke-linecap:round;stroke-linejoin:round;stroke-miterlimit:10;" d="
				M165.96,271.121c0,0-11.319,9.222-28.994,3.636"/>
			<path style="opacity:0.2;fill:none;stroke:#FFFFFF;stroke-linecap:round;stroke-linejoin:round;stroke-miterlimit:10;" d="
				M175.635,279.741c0,0,2.384,3.105,2.244,8.824"/>
		</g>
		<path style="opacity:0.2;fill:none;stroke:#FFFFFF;stroke-linecap:round;stroke-linejoin:round;stroke-miterlimit:10;" d="
			M175.635,279.741"/>
		<path style="fill:none;stroke:#263238;stroke-linecap:round;stroke-linejoin:round;stroke-miterlimit:10;" d="M132.603,355.367
			c0,0-7.537-2.195-13.076,1.68"/>
		<path style="fill:none;stroke:#263238;stroke-linecap:round;stroke-linejoin:round;stroke-miterlimit:10;" d="M106.379,375.165
			c0,0,8.422,16.384,19.686,16.599"/>
		<path style="fill:none;stroke:#263238;stroke-linecap:round;stroke-linejoin:round;stroke-miterlimit:10;" d="M100.934,392.659
			c0,0,11.297,2.118,17.371,1.459"/>
		<path style="fill:none;stroke:#263238;stroke-linecap:round;stroke-linejoin:round;stroke-miterlimit:10;" d="M144.149,331.846
			c0,0,7.937,1.945,10.745-2.093c2.809-4.039,0.335-6.6,0.335-6.6"/>
	</g>
</g>
</svg>
